<?xml version="1.0" standalone="no"?><!DOCTYPE svg PUBLIC "-//W3C//DTD SVG 1.1//EN" "http://www.w3.org/Graphics/SVG/1.1/DTD/svg11.dtd"><svg t="1670654259662" class="icon" viewBox="0 0 1024 1024" version="1.1" xmlns="http://www.w3.org/2000/svg" p-id="894" xmlns:xlink="http://www.w3.org/1999/xlink" width="200" height="200"><path d="M512 193.422222c175.945956 0 318.577778 142.631822 318.577778 318.577778S687.945956 830.577778 512 830.577778 193.422222 687.945956 193.422222 512s142.631822-318.577778 318.577778-318.577778z m185.514667 137.944178a22.755556 22.755556 0 0 0-32.176356 0L514.446222 482.247111 368.4352 336.247467l-1.444978-1.3312a22.755556 22.755556 0 0 0-30.742755 33.518933l146.011022 145.999644-143.621689 143.633067-1.3312 1.444978a22.755556 22.755556 0 0 0 33.518933 30.731378l143.621689-143.633067 143.621689 143.633067 1.444978 1.3312a22.755556 22.755556 0 0 0 30.731378-33.507556L546.622578 514.434844l150.892089-150.880711 1.3312-1.456355a22.755556 22.755556 0 0 0-1.3312-30.72z" fill="#40A9FF" p-id="895"></path></svg>